<svg version="1.0" xmlns="http://www.w3.org/2000/svg"
 width="250" height="62" viewBox="0 0 185.000000 77.000000"
 preserveAspectRatio="xMidYMid meet">

<g transform="translate(0.000000,77.000000) scale(0.100000,-0.105000)"
fill="#000000" stroke="none">
<path d="M643 615 c-29 -8 -72 -24 -95 -36 -60 -30 -151 -102 -173 -136 -18
-27 -17 -27 26 7 92 74 166 105 275 116 42 5 64 11 64 20 0 7 3 19 6 28 8 20
-30 20 -103 1z"/>
<path d="M1184 465 c-4 -9 -2 -21 4 -27 15 -15 44 -1 40 19 -4 23 -36 29 -44
8z"/>
<path d="M1477 462 c-10 -10 -17 -24 -17 -30 0 -6 -6 -15 -13 -19 -18 -11 -29
-43 -15 -43 10 0 6 -47 -9 -108 -4 -19 -2 -22 18 -19 20 3 26 13 37 64 10 45
18 62 33 66 10 3 19 13 19 22 0 11 -5 15 -15 11 -9 -3 -15 0 -15 8 0 15 29 43
39 38 3 -2 7 4 9 12 5 23 -51 21 -71 -2z"/>
<path d="M193 375 c-30 -30 -34 -40 -31 -77 3 -36 7 -44 30 -52 22 -8 32 -6
48 9 18 16 20 16 20 2 0 -10 8 -17 18 -17 15 0 21 15 33 80 8 45 13 83 10 85
-2 3 -24 5 -49 5 -37 0 -50 -6 -79 -35z m77 -14 c0 -52 -42 -101 -60 -71 -10
17 5 61 27 78 24 17 33 15 33 -7z"/>
<path d="M370 392 c-29 -24 -21 -64 15 -80 33 -15 22 -35 -16 -30 -19 3 -30
-1 -34 -10 -12 -32 54 -44 93 -16 30 21 29 59 -3 80 -34 22 -33 46 2 42 19 -2
28 2 31 15 5 24 -58 23 -88 -1z"/>
<path d="M509 380 c-59 -58 -21 -155 53 -137 44 11 69 39 75 83 4 34 1 46 -16
63 -31 31 -76 27 -112 -9z m79 -39 c4 -36 -12 -61 -38 -61 -23 0 -29 17 -19
54 16 55 52 59 57 7z"/>
<path d="M666 308 c-10 -57 -21 -109 -23 -115 -3 -8 4 -13 20 -13 20 0 26 6
31 33 6 30 10 33 41 33 41 0 70 24 85 70 21 63 -32 119 -77 82 -13 -10 -17
-10 -20 0 -3 6 -12 12 -22 12 -13 0 -20 -20 -35 -102z m112 39 c5 -26 -25 -67
-49 -67 -19 0 -21 4 -15 32 3 17 11 37 18 45 15 18 42 12 46 -10z"/>
<path d="M857 353 c-4 -32 -10 -70 -13 -85 -5 -24 -3 -28 15 -28 23 0 24 2 41
68 8 30 18 46 34 52 30 11 42 50 16 50 -11 0 -26 -10 -36 -22 l-16 -23 5 23
c4 18 1 22 -18 22 -20 0 -23 -6 -28 -57z"/>
<path d="M999 381 c-52 -53 -32 -141 33 -141 75 0 128 100 78 150 -30 30 -76
26 -111 -9z m79 -34 c4 -34 -14 -67 -37 -67 -25 0 -33 24 -20 57 19 49 52 55
57 10z"/>
<path d="M1160 333 c-7 -43 -11 -80 -9 -83 2 -2 12 -5 21 -5 17 -2 23 15 43
128 7 35 6 37 -18 37 -23 0 -25 -5 -37 -77z"/>
<path d="M1260 406 c0 -2 -7 -40 -15 -83 -8 -43 -15 -79 -15 -80 0 -2 10 -1
22 1 18 2 25 13 34 53 14 63 20 73 46 73 21 0 21 2 1 -103 -5 -24 -3 -27 18
-24 20 3 26 13 36 63 15 71 5 104 -31 104 -14 0 -32 -7 -40 -16 -15 -14 -16
-14 -16 0 0 9 -8 16 -20 16 -11 0 -20 -2 -20 -4z"/>
<path d="M1539 340 c-10 -56 -10 -72 1 -85 16 -19 40 -19 68 1 17 12 22 12 22
2 0 -8 8 -14 19 -15 15 -1 20 11 31 70 7 40 15 78 17 85 3 7 -4 12 -20 12 -22
0 -27 -6 -36 -52 -13 -57 -26 -78 -49 -78 -12 0 -13 8 -8 43 3 23 9 52 12 65
5 19 2 22 -19 22 -23 0 -26 -5 -38 -70z"/>
<path d="M354 219 c-26 -33 -24 -36 25 -36 41 0 48 2 44 16 -4 13 -2 12 7 -1
6 -10 20 -18 31 -18 14 0 19 5 17 18 -3 18 -54 26 -64 10 -3 -4 -10 -8 -15 -8
-6 0 -7 5 -3 12 4 7 3 8 -5 4 -6 -4 -9 -12 -6 -17 4 -5 2 -9 -4 -9 -5 0 -11
10 -13 22 -2 17 -5 19 -14 7z"/>
<path d="M582 218 c-7 -7 -12 -17 -12 -24 0 -16 58 -13 64 3 7 18 -15 28 -25
12 -8 -13 -13 -6 -10 14 1 10 -3 9 -17 -5z"/>
<path d="M720 221 c0 -5 -3 -18 -7 -28 -6 -16 -5 -16 10 -4 9 7 14 18 10 24
-3 6 -1 7 5 3 7 -4 12 -15 13 -24 0 -14 2 -13 9 3 7 16 9 16 9 4 1 -14 14 -17
86 -16 69 1 85 5 86 17 0 13 1 13 7 0 4 -8 15 -16 26 -18 14 -3 17 1 12 15 -6
17 -5 17 8 0 13 -16 14 -16 18 8 3 14 1 25 -3 25 -5 0 -9 -4 -9 -10 0 -5 -6
-9 -12 -7 -7 1 -12 -5 -10 -13 2 -12 -1 -11 -11 2 -7 9 -22 17 -33 16 -10 0
-28 3 -39 8 -17 7 -18 6 -5 -8 8 -9 18 -14 23 -11 4 2 7 -1 7 -6 0 -14 -17
-14 -25 -1 -4 6 -11 8 -16 5 -5 -4 -9 -2 -9 4 0 5 -11 8 -25 7 -13 -2 -22 1
-19 5 3 5 0 9 -5 9 -6 0 -12 -10 -12 -22 -1 -18 -2 -19 -6 -5 -3 12 -12 16
-29 13 -13 -3 -24 0 -24 5 0 5 -7 9 -15 9 -8 0 -15 -4 -15 -9z"/>
<path d="M1036 211 c-11 -12 -17 -22 -15 -22 2 -1 16 -3 31 -4 21 -3 26 0 21
12 -5 12 -3 14 7 8 9 -5 11 -4 6 4 -4 6 -11 9 -16 6 -4 -3 -10 0 -12 6 -2 6
-12 1 -22 -10z"/>
<path d="M1107 223 c-16 -16 -6 -39 18 -41 19 -1 25 3 25 18 0 11 -5 20 -11
20 -5 0 -8 -4 -5 -8 3 -5 -1 -9 -8 -9 -8 0 -12 6 -9 14 6 14 1 17 -10 6z"/>
<path d="M1166 223 c-3 -4 -6 -16 -5 -27 0 -21 1 -21 9 -1 9 20 9 20 10 0 1
-20 1 -20 10 0 7 17 9 17 9 3 1 -11 9 -18 20 -18 11 0 22 8 24 18 4 14 5 14 6
1 1 -23 51 -22 51 1 0 21 -30 22 -31 1 0 -10 -3 -8 -9 6 -11 26 -42 21 -33 -5
5 -16 5 -16 -8 -1 -16 19 -44 30 -53 22z"/>
<path d="M1410 203 c0 -23 2 -25 11 -13 8 11 12 12 16 3 5 -14 43 -18 43 -5 0
4 -5 14 -10 22 -8 12 -10 12 -10 -5 -1 -18 -2 -18 -10 3 -13 32 -40 29 -40 -5z"/>
<path d="M1614 222 c-6 -4 -14 -14 -17 -22 -5 -13 -6 -13 -6 0 -1 12 -13 16
-56 16 -30 -1 -55 -3 -55 -6 1 -12 16 -25 32 -28 13 -2 16 2 12 15 -5 17 -5
17 9 0 11 -14 16 -15 20 -5 4 10 6 10 6 1 1 -19 39 -16 50 5 10 16 10 16 11 0
0 -23 36 -24 44 -2 9 24 8 27 -14 21 -10 -3 -20 -1 -22 4 -2 4 -8 5 -14 1z"/>
<path d="M496 213 c-17 -17 -3 -31 30 -31 27 0 34 4 32 16 -3 16 -50 27 -62
15z"/>
<path d="M1310 200 c0 -25 27 -27 33 -2 4 16 5 16 6 0 1 -23 37 -24 45 -2 8
20 1 29 -13 19 -6 -3 -8 -12 -4 -18 3 -7 -3 -4 -14 6 -27 23 -53 22 -53 -3z"/>
</g>
</svg>
