<svg width="249.101" height="72.401" viewBox="0 0 249.101 72.401" xmlns="http://www.w3.org/2000/svg"><g id="svgGroup" stroke-linecap="round" fill-rule="evenodd" font-size="9pt" stroke="#000" stroke-width="0.25mm" fill="#000" style="stroke:#000;stroke-width:0.25mm;fill:#000"><path d="M 128.301 71.2 L 119.301 71.2 L 119.301 1.2 L 132.601 1.2 L 152.001 45.5 L 171.101 1.2 L 184.701 1.2 L 184.701 71.2 L 175.201 71.2 L 175.201 13.3 L 156.501 55.4 L 147.101 55.4 L 128.301 13.3 L 128.301 71.2 Z M 48.901 3.6 L 46.001 11.6 Q 42.901 10.1 39.651 9.2 Q 36.858 8.427 33.215 8.318 A 40.705 40.705 0 0 0 32.001 8.3 A 21.173 21.173 0 0 0 24.096 9.755 A 19.981 19.981 0 0 0 20.551 11.6 A 21.167 21.167 0 0 0 14.185 18.181 A 26.978 26.978 0 0 0 12.601 21.1 Q 9.701 27.3 9.701 36.1 Q 9.701 44.5 12.551 50.8 A 25.677 25.677 0 0 0 16.137 56.628 A 21.423 21.423 0 0 0 20.451 60.6 A 19.703 19.703 0 0 0 31.596 64.097 A 23.894 23.894 0 0 0 32.001 64.1 A 33.715 33.715 0 0 0 35.972 63.879 Q 38.448 63.585 40.501 62.9 Q 44.101 61.7 47.501 59.8 L 50.401 67.7 A 37.561 37.561 0 0 1 45.906 69.744 A 47.894 47.894 0 0 1 41.951 71.05 A 33.592 33.592 0 0 1 36.985 72.041 Q 34.504 72.355 31.706 72.395 A 57.414 57.414 0 0 1 30.901 72.4 A 32.384 32.384 0 0 1 21.576 71.099 A 27.961 27.961 0 0 1 14.801 68.05 A 28.6 28.6 0 0 1 4.924 57.605 A 34.916 34.916 0 0 1 3.901 55.65 A 37.611 37.611 0 0 1 0.801 45.933 Q 0.026 41.667 0.001 36.814 A 62.816 62.816 0 0 1 0.001 36.5 Q 0.001 25.8 3.951 17.55 Q 7.901 9.3 15.151 4.65 A 29.371 29.371 0 0 1 27.831 0.239 A 37.292 37.292 0 0 1 32.101 0 A 45.639 45.639 0 0 1 37.159 0.268 A 35.2 35.2 0 0 1 41.201 0.95 A 38.224 38.224 0 0 1 48.675 3.495 A 35.605 35.605 0 0 1 48.901 3.6 Z M 104.801 3.6 L 101.901 11.6 Q 98.801 10.1 95.551 9.2 Q 92.758 8.427 89.115 8.318 A 40.705 40.705 0 0 0 87.901 8.3 A 21.173 21.173 0 0 0 79.996 9.755 A 19.981 19.981 0 0 0 76.451 11.6 A 21.167 21.167 0 0 0 70.085 18.181 A 26.978 26.978 0 0 0 68.501 21.1 Q 65.601 27.3 65.601 36.1 Q 65.601 44.5 68.451 50.8 A 25.677 25.677 0 0 0 72.037 56.628 A 21.423 21.423 0 0 0 76.351 60.6 A 19.703 19.703 0 0 0 87.496 64.097 A 23.894 23.894 0 0 0 87.901 64.1 A 33.715 33.715 0 0 0 91.872 63.879 Q 94.348 63.585 96.401 62.9 Q 100.001 61.7 103.401 59.8 L 106.301 67.7 A 37.561 37.561 0 0 1 101.806 69.744 A 47.894 47.894 0 0 1 97.851 71.05 A 33.592 33.592 0 0 1 92.885 72.041 Q 90.404 72.355 87.606 72.395 A 57.414 57.414 0 0 1 86.801 72.4 A 32.384 32.384 0 0 1 77.476 71.099 A 27.961 27.961 0 0 1 70.701 68.05 A 28.6 28.6 0 0 1 60.824 57.605 A 34.916 34.916 0 0 1 59.801 55.65 A 37.611 37.611 0 0 1 56.701 45.933 Q 55.926 41.667 55.901 36.814 A 62.816 62.816 0 0 1 55.901 36.5 Q 55.901 25.8 59.851 17.55 Q 63.801 9.3 71.051 4.65 A 29.371 29.371 0 0 1 83.731 0.239 A 37.292 37.292 0 0 1 88.001 0 A 45.639 45.639 0 0 1 93.059 0.268 A 35.2 35.2 0 0 1 97.101 0.95 A 38.224 38.224 0 0 1 104.575 3.495 A 35.605 35.605 0 0 1 104.801 3.6 Z M 247.601 3.6 L 244.701 11.6 Q 241.601 10.1 238.351 9.2 Q 235.558 8.427 231.915 8.318 A 40.705 40.705 0 0 0 230.701 8.3 A 21.173 21.173 0 0 0 222.796 9.755 A 19.981 19.981 0 0 0 219.251 11.6 A 21.167 21.167 0 0 0 212.885 18.181 A 26.978 26.978 0 0 0 211.301 21.1 Q 208.401 27.3 208.401 36.1 Q 208.401 44.5 211.251 50.8 A 25.677 25.677 0 0 0 214.837 56.628 A 21.423 21.423 0 0 0 219.151 60.6 A 19.703 19.703 0 0 0 230.296 64.097 A 23.894 23.894 0 0 0 230.701 64.1 A 33.715 33.715 0 0 0 234.672 63.879 Q 237.148 63.585 239.201 62.9 Q 242.801 61.7 246.201 59.8 L 249.101 67.7 A 37.561 37.561 0 0 1 244.606 69.744 A 47.894 47.894 0 0 1 240.651 71.05 A 33.592 33.592 0 0 1 235.685 72.041 Q 233.204 72.355 230.406 72.395 A 57.414 57.414 0 0 1 229.601 72.4 A 32.384 32.384 0 0 1 220.276 71.099 A 27.961 27.961 0 0 1 213.501 68.05 A 28.6 28.6 0 0 1 203.624 57.605 A 34.916 34.916 0 0 1 202.601 55.65 A 37.611 37.611 0 0 1 199.501 45.933 Q 198.726 41.667 198.701 36.814 A 62.816 62.816 0 0 1 198.701 36.5 Q 198.701 25.8 202.651 17.55 Q 206.601 9.3 213.851 4.65 A 29.371 29.371 0 0 1 226.531 0.239 A 37.292 37.292 0 0 1 230.801 0 A 45.639 45.639 0 0 1 235.859 0.268 A 35.2 35.2 0 0 1 239.901 0.95 A 38.224 38.224 0 0 1 247.375 3.495 A 35.605 35.605 0 0 1 247.601 3.6 Z" vector-effect="non-scaling-stroke"/></g></svg>