<svg version="1.0" xmlns="http://www.w3.org/2000/svg"
 width="300.000000pt" height="293.000000pt" viewBox="0 0 300.000000 293.000000"
 preserveAspectRatio="xMidYMid meet">
<metadata>
Created by potrace 1.10, written by Peter Selinger 2001-2011
</metadata>
<g transform="translate(0.000000,293.000000) scale(0.150000,-0.105000)"
fill="#000000" stroke="none">
<path d="M1392 2875 c-1 -80 5 -92 43 -84 30 7 30 7 3 8 -24 1 -27 6 -32 44
-11 86 -13 91 -14 32z"/>
<path d="M1531 2925 c0 -5 6 -21 14 -35 8 -14 15 -43 16 -65 l1 -40 12 45 c7
25 18 56 25 68 7 13 11 26 8 28 -2 2 -10 -7 -17 -21 -13 -24 -30 -34 -30 -17
0 5 -7 17 -15 28 -8 10 -14 15 -14 9z"/>
<path d="M1273 2840 c-11 -38 -17 -70 -13 -70 4 0 11 11 14 25 4 14 13 25 20
25 8 0 21 2 28 5 9 4 20 -5 28 -20 7 -14 15 -23 18 -21 5 6 -60 126 -68 126
-3 0 -15 -31 -27 -70z m40 -1 c-21 -7 -28 4 -18 29 6 16 8 15 21 -3 13 -17 13
-20 -3 -26z"/>
<path d="M1201 2890 c0 -8 6 -42 14 -75 l14 -60 -5 60 c-6 55 -24 114 -23 75z"/>
<path d="M1718 2843 c-37 -58 -44 -85 -11 -44 16 19 22 21 46 12 17 -7 27 -18
27 -31 0 -11 5 -20 11 -20 6 0 9 6 6 13 -2 6 -10 38 -17 70 -7 31 -16 57 -19
57 -3 0 -23 -26 -43 -57z m52 -10 c0 -6 -8 -9 -20 -6 -16 4 -18 9 -9 25 9 17
13 18 20 7 5 -8 9 -19 9 -26z"/>
<path d="M1099 2878 c-72 -24 -51 -138 26 -138 19 0 39 8 50 20 21 23 11 27
-11 5 -35 -35 -94 -5 -94 48 0 36 27 60 62 55 15 -3 28 -1 28 3 0 12 -34 16
-61 7z"/>
<path d="M1873 2870 c-69 -28 -48 -140 27 -140 53 0 80 53 29 57 -14 1 -17 0
-6 -3 25 -8 21 -33 -7 -40 -54 -13 -92 45 -61 92 18 28 65 33 85 9 7 -8 18
-15 24 -15 6 0 -2 12 -17 25 -30 27 -40 29 -74 15z"/>
<path d="M957 2827 c-16 -5 -26 -14 -24 -21 2 -6 13 -35 23 -63 10 -29 22 -53
26 -53 4 0 3 12 -3 26 -13 37 -6 40 31 14 17 -12 34 -20 37 -17 3 3 -9 14 -26
25 -28 17 -29 20 -15 34 17 17 12 53 -9 61 -7 2 -25 0 -40 -6z m46 -21 c7 -19
-18 -40 -38 -32 -15 6 -20 28 -8 39 12 12 41 7 46 -7z"/>
<path d="M2009 2803 c-6 -16 -17 -46 -25 -68 -12 -36 -12 -38 1 -21 8 11 15
26 15 35 0 22 14 4 27 -37 l12 -37 -5 38 c-4 32 -2 37 15 37 11 0 26 10 32 22
10 18 8 24 -11 40 -31 25 -49 23 -61 -9z m61 -19 c0 -18 -24 -28 -43 -17 -11
6 -12 14 -6 31 7 19 12 21 29 12 11 -6 20 -17 20 -26z"/>
<path d="M2136 2811 c-4 -5 3 -7 14 -4 23 6 26 13 6 13 -8 0 -17 -4 -20 -9z"/>
<path d="M853 2787 l-21 -12 28 -62 c16 -35 31 -63 34 -63 13 0 56 24 56 32 0
5 -9 4 -19 -2 -29 -15 -37 -13 -49 14 -10 22 -8 25 20 35 17 6 29 13 26 16 -3
3 -18 1 -33 -5 -22 -8 -30 -8 -37 2 -12 20 -10 26 20 42 15 8 20 15 12 15 -8
0 -25 -5 -37 -12z"/>
<path d="M2116 2763 c-25 -49 -47 -108 -37 -98 12 12 63 125 56 125 -2 0 -11
-12 -19 -27z"/>
<path d="M2154 2725 c-18 -19 -24 -34 -22 -57 4 -38 47 -75 75 -63 15 6 12 9
-16 15 -56 13 -68 54 -26 95 31 32 50 31 80 -1 14 -15 25 -22 25 -15 0 20 -39
51 -65 51 -14 0 -37 -11 -51 -25z"/>
<path d="M785 2681 l7 -64 -51 37 c-28 21 -51 36 -51 33 0 -2 7 -22 16 -43 9
-22 20 -50 25 -63 5 -13 12 -22 14 -19 3 3 -2 22 -10 43 -9 20 -14 39 -11 42
2 3 21 -8 41 -23 l37 -28 -3 52 c-2 29 -2 52 1 52 3 0 16 -16 29 -35 13 -20
26 -33 29 -31 4 4 -42 70 -71 101 -5 6 -6 -15 -2 -54z"/>
<path d="M1506 2684 c22 -93 65 -218 76 -225 7 -5 27 -9 43 -9 l31 0 -4 -67
c-3 -57 1 -76 21 -115 13 -27 23 -48 21 -48 -1 0 -33 7 -71 16 -50 12 -96 15
-174 11 -336 -17 -605 -232 -711 -567 -20 -66 -23 -95 -23 -235 0 -154 2 -164
32 -252 34 -98 88 -202 108 -210 7 -2 36 7 63 21 149 75 169 80 387 80 192 1
200 2 203 21 2 18 -83 145 -108 160 -6 4 -93 -21 -193 -54 l-183 -61 -49 15
c-83 25 -79 18 -85 177 -5 139 -6 144 -38 202 l-34 59 47 141 47 141 69 67
c116 112 259 165 336 125 72 -37 142 -150 183 -293 11 -38 36 -159 56 -268 27
-154 42 -212 65 -259 37 -73 111 -154 148 -162 16 -3 77 5 141 20 127 28 195
31 244 11 19 -8 99 -58 178 -112 141 -96 213 -135 274 -148 30 -7 32 -6 61 61
70 156 103 319 103 509 0 213 -43 399 -135 578 -59 116 -121 202 -223 307
-218 227 -505 360 -830 386 l-83 6 7 -29z m501 -139 c33 -15 60 -36 73 -57 21
-35 36 -95 27 -105 -3 -3 -27 -1 -54 3 -38 7 -48 14 -53 33 -3 13 -18 34 -33
45 -26 19 -30 19 -55 6 -31 -18 -72 -92 -72 -132 0 -51 66 -75 111 -39 24 19
24 19 64 -15 l40 -35 -35 -29 c-19 -17 -48 -33 -65 -36 -67 -12 -159 32 -203
96 -50 74 -4 232 81 274 47 23 114 20 174 -9z m333 -233 c0 -3 -186 -226 -224
-269 -9 -10 -21 -4 -56 26 l-44 38 118 141 118 141 44 -37 c24 -20 44 -38 44
-40z m151 -195 c86 -58 123 -175 79 -246 l-21 -34 -34 33 c-31 30 -33 36 -28
80 5 41 3 49 -18 64 -29 20 -51 20 -92 0 -51 -26 -77 -55 -77 -85 0 -37 44
-72 80 -64 26 6 28 3 37 -44 6 -28 8 -53 5 -56 -3 -3 -26 -5 -52 -5 -63 0
-106 30 -142 99 -47 90 -35 156 38 221 74 64 163 79 225 37z m22 -446 c98 -28
182 -53 187 -56 6 -3 10 -33 10 -66 l0 -60 -170 -81 c-93 -45 -170 -84 -170
-88 0 -4 75 -26 166 -50 l165 -43 -6 -26 c-3 -14 -20 -76 -36 -137 l-31 -111
-39 10 c-21 5 -39 12 -39 16 0 3 9 37 20 75 11 38 17 72 15 76 -3 4 -16 10
-29 12 -23 5 -26 0 -37 -46 -19 -81 -24 -87 -62 -74 -17 6 -33 11 -34 12 -1 1
7 31 17 68 l18 67 -69 18 c-42 10 -69 23 -69 31 0 27 23 102 31 102 4 0 6 28
2 63 l-5 62 32 12 c24 9 31 17 26 28 -3 9 -6 36 -6 60 0 40 -2 44 -31 50 -17
4 -32 12 -34 18 -8 26 -12 107 -6 107 4 0 87 -22 184 -49z"/>
<path d="M2481 1553 c2 -49 10 -53 68 -28 l55 23 -32 6 c-18 3 -45 9 -62 12
-25 5 -30 2 -29 -13z"/>
<path d="M1185 2671 c-81 -22 -223 -75 -248 -93 -15 -12 -7 -24 76 -111 l92
-98 64 25 c35 14 66 28 69 31 5 5 30 199 31 243 1 26 5 26 -84 3z"/>
<path d="M2281 2634 c-12 -15 -21 -37 -21 -50 0 -31 33 -64 65 -64 35 0 75 42
75 78 0 61 -80 85 -119 36z m91 -1 c10 -9 18 -25 18 -35 0 -23 -43 -68 -65
-68 -21 0 -55 36 -55 60 0 26 34 60 62 60 12 0 30 -7 40 -17z"/>
<path d="M576 2614 c-39 -39 -2 -124 55 -124 30 0 43 9 58 37 34 65 -62 139
-113 87z m86 -11 c25 -22 24 -79 -1 -93 -29 -15 -49 -12 -71 10 -54 54 15 135
72 83z"/>
<path d="M2429 2553 c-65 -73 -64 -71 -44 -93 10 -11 23 -20 28 -20 6 0 3 8
-6 18 -21 23 -21 36 -2 52 17 14 59 70 53 70 -3 0 -15 -12 -29 -27z"/>
<path d="M457 2512 c-26 -29 -22 -77 9 -101 48 -38 115 -16 113 37 l-1 27 -7
-25 c-4 -14 -19 -31 -33 -39 -23 -13 -29 -13 -52 2 -50 33 -40 99 18 110 18 4
17 4 -5 6 -14 0 -33 -7 -42 -17z"/>
<path d="M2488 2457 c-32 -11 -58 -25 -58 -29 0 -5 9 -4 21 3 17 9 25 7 45
-12 19 -17 21 -26 13 -41 -6 -11 -8 -22 -6 -25 5 -5 38 64 52 106 8 25 5 25
-67 -2z m52 -4 c0 -5 -5 -15 -10 -23 -7 -12 -12 -12 -22 -2 -10 10 -10 15 2
22 18 12 30 13 30 3z"/>
<path d="M623 2358 c-47 -46 -104 -105 -125 -132 l-40 -50 139 -47 138 -47 43
41 c23 23 42 48 42 56 0 22 -94 261 -103 261 -4 0 -46 -37 -94 -82z"/>
<path d="M2602 2328 l-53 -41 28 -29 c16 -17 37 -28 53 -28 33 0 70 38 70 71
0 24 -25 69 -38 69 -4 0 -31 -19 -60 -42z m88 -29 c0 -24 -34 -59 -57 -59 -9
0 -27 10 -41 22 l-23 23 43 37 43 37 18 -20 c9 -12 17 -30 17 -40z"/>
<path d="M320 2353 c0 -9 95 -83 106 -83 9 0 33 33 33 45 1 6 -7 0 -17 -12
l-17 -22 -52 40 c-29 22 -53 36 -53 32z"/>
<path d="M270 2274 c0 -14 73 -125 78 -119 3 3 0 11 -6 17 -30 30 0 74 47 71
18 -2 14 2 -14 11 -53 17 -105 27 -105 20z m64 -23 c3 -5 -1 -14 -8 -21 -12
-9 -17 -7 -26 9 -9 18 -8 21 9 21 11 0 22 -4 25 -9z"/>
<path d="M2683 2213 l-53 -36 21 -29 c25 -35 38 -30 14 5 -16 24 -15 26 6 38
19 10 25 9 40 -10 25 -30 35 -26 14 6 -17 25 -17 27 1 40 16 12 20 10 33 -12
9 -14 19 -25 24 -25 4 0 0 14 -10 30 -9 17 -22 30 -28 29 -5 0 -34 -16 -62
-36z"/>
<path d="M210 2192 c0 -4 24 -20 52 -37 62 -35 77 -42 63 -27 -17 17 -115 72
-115 64z"/>
<path d="M2748 2129 c-61 -31 -68 -43 -43 -75 17 -22 20 -12 5 16 -9 17 -4 23
39 45 27 13 52 29 56 35 8 13 9 13 -57 -21z"/>
<path d="M178 2133 c-31 -37 -29 -42 24 -73 29 -16 60 -30 68 -30 8 1 2 8 -13
16 -34 18 -30 25 20 34 l38 8 -37 1 c-31 1 -38 5 -38 21 0 10 -9 24 -19 30
-25 13 -25 13 -43 -7z m49 -18 c2 -6 -2 -19 -9 -28 -12 -16 -16 -16 -33 -3
-17 12 -17 16 -6 30 15 18 42 18 48 1z"/>
<path d="M125 2030 c-9 -16 -11 -30 -6 -30 5 0 11 5 13 11 3 8 14 7 36 -5 46
-23 84 -37 78 -28 -2 4 -27 18 -55 31 -32 16 -48 28 -44 37 10 26 -6 14 -22
-16z"/>
<path d="M2805 2003 c-33 -14 -61 -26 -62 -26 -1 -1 5 -17 13 -36 8 -19 17
-31 20 -28 3 3 0 15 -6 28 -11 19 -10 25 6 36 25 18 31 17 48 -14 l16 -28 -3
35 c-3 44 24 53 42 14 6 -15 14 -24 17 -21 5 4 -23 68 -29 66 -1 0 -29 -12
-62 -26z"/>
<path d="M307 1886 c-35 -90 -76 -260 -66 -270 2 -3 72 5 154 17 l150 22 15
59 15 59 -70 64 c-39 36 -91 82 -116 104 l-46 39 -36 -94z"/>
<path d="M1198 1965 c-21 -8 -57 -27 -80 -43 -78 -54 -101 -87 -139 -200 l-37
-106 19 -36 c26 -50 49 -161 49 -242 0 -38 3 -68 7 -68 5 0 91 28 192 61 183
61 184 61 218 45 20 -9 37 -16 38 -14 2 2 -12 84 -30 183 -45 245 -77 339
-138 403 -34 35 -44 37 -99 17z"/>
<path d="M90 1944 c-11 -12 -10 -18 3 -32 15 -14 21 -15 50 -3 17 7 39 13 47
14 19 3 26 -33 8 -44 -8 -5 -8 -9 -2 -9 23 0 36 27 24 49 -13 25 -28 26 -75 4
-39 -19 -55 -12 -37 17 14 24 0 27 -18 4z"/>
<path d="M2850 1891 c-11 -23 -25 -41 -30 -41 -13 0 -25 22 -22 45 2 18 1 18
-10 -2 -8 -17 -8 -26 2 -38 22 -27 48 -17 70 26 20 39 46 49 44 15 -1 -9 3
-16 8 -16 20 0 3 45 -19 48 -17 3 -27 -6 -43 -37z"/>
<path d="M70 1866 c0 -3 25 -12 55 -21 47 -13 55 -19 55 -39 0 -32 -15 -36
-73 -19 -27 8 -51 12 -54 10 -2 -3 21 -13 52 -22 54 -15 58 -15 76 1 24 21 24
37 2 56 -23 19 -113 46 -113 34z"/>
<path d="M2930 1838 c0 -12 -17 -22 -62 -35 -35 -9 -56 -19 -48 -20 8 -2 37 3
65 11 38 12 51 13 57 3 5 -8 8 -5 8 8 0 11 -5 27 -10 35 -8 13 -10 13 -10 -2z"/>
<path d="M36 1718 c-24 -33 -20 -67 7 -73 78 -18 107 -22 112 -17 13 13 4 80
-13 95 -28 25 -87 22 -106 -5z m98 -4 c9 -8 16 -29 16 -46 l0 -30 -46 7 c-68
10 -76 14 -68 39 4 11 11 27 16 34 14 17 63 15 82 -4z"/>
<path d="M2853 1718 c34 -12 39 -61 6 -78 -11 -7 -18 -14 -16 -17 3 -3 34 14
68 38 l63 43 -54 12 c-68 16 -108 17 -67 2z m80 -18 c13 -1 -22 -30 -35 -30
-4 0 -8 9 -8 21 0 15 4 19 16 15 9 -3 21 -6 27 -6z"/>
<path d="M2908 1603 l-58 -4 0 -34 c0 -39 29 -75 60 -75 54 0 86 37 78 91 -4
26 -4 26 -80 22z m72 -35 c0 -31 -11 -45 -40 -56 -34 -13 -68 2 -76 34 -9 34
7 44 69 44 42 0 47 -2 47 -22z"/>
<path d="M49 1589 c25 -5 49 -10 54 -12 5 -1 -15 -18 -44 -37 l-54 -34 45 -7
c68 -11 98 -11 80 1 -8 5 -33 10 -55 10 l-40 0 58 39 58 38 -38 6 c-21 4 -54
6 -73 6 -34 -1 -34 -1 9 -10z"/>
<path d="M2895 1458 c-27 -14 -45 -38 -45 -60 0 -29 45 -68 78 -68 33 0 72 36
72 67 0 46 -64 83 -105 61z m81 -33 c21 -33 6 -71 -31 -81 -33 -8 -50 -1 -71
30 -15 24 -15 28 0 51 23 35 79 35 102 0z"/>
<path d="M33 1453 c20 -2 54 -2 75 0 20 2 3 4 -38 4 -41 0 -58 -2 -37 -4z"/>
<path d="M227 1348 c19 -176 64 -355 86 -341 7 4 65 47 130 96 112 84 118 90
113 118 -3 16 -8 42 -11 57 -5 27 -11 29 -158 65 -84 21 -155 37 -158 37 -3 0
-4 -15 -2 -32z"/>
<path d="M65 1338 l-59 -30 63 -24 c71 -27 100 -31 59 -8 -35 18 -37 55 -5 77
37 26 6 18 -58 -15z m25 -28 c0 -22 -8 -25 -30 -10 -13 9 -13 11 0 20 22 15
30 12 30 -10z"/>
<path d="M2873 1237 c33 -9 37 -14 32 -34 -3 -13 -1 -23 5 -23 5 0 10 9 10 20
0 15 7 20 25 20 22 0 25 -3 19 -26 -5 -19 -4 -25 5 -20 6 4 11 18 11 30 0 20
-7 25 -57 35 -69 14 -102 12 -50 -2z"/>
<path d="M130 1205 l-23 -24 -16 21 c-13 15 -23 19 -39 14 -18 -6 -22 -15 -22
-47 0 -34 3 -40 18 -35 9 3 38 8 65 12 26 3 50 10 53 15 3 5 -9 6 -26 3 -37
-8 -38 2 -3 38 15 15 24 28 22 28 -3 0 -16 -11 -29 -25z m-42 -32 c3 -19 -1
-23 -22 -23 -21 0 -26 5 -26 26 0 21 4 25 23 22 14 -2 23 -11 25 -25z"/>
<path d="M2846 1151 c32 -26 22 -68 -20 -77 -58 -13 -11 -14 59 -1 l70 12 -56
43 c-54 41 -96 59 -53 23z m55 -63 c-28 -10 -36 -5 -27 17 5 13 10 14 28 4
l22 -12 -23 -9z"/>
<path d="M116 1086 c-32 -24 -53 -46 -49 -49 4 -3 40 -7 78 -11 39 -3 57 -2
40 2 -39 9 -50 48 -22 80 31 34 15 27 -47 -22z m24 -38 c0 -5 -12 -8 -27 -8
-26 0 -26 0 -8 20 14 16 20 17 27 8 4 -7 8 -16 8 -20z"/>
<path d="M1605 1040 c-4 -12 -23 -32 -43 -45 -48 -31 -173 -42 -295 -26 -100
14 -126 9 -256 -47 l-84 -36 60 -55 c165 -154 408 -233 626 -202 164 23 363
110 534 232 57 40 102 74 100 75 -1 1 -33 22 -70 48 -80 54 -91 55 -237 21
-160 -37 -215 -32 -286 28 -38 32 -41 33 -49 7z"/>
<path d="M2786 1014 c-8 -32 -1 -44 9 -15 8 25 10 25 65 6 23 -8 50 -15 59
-14 9 0 -6 8 -34 18 -95 34 -92 34 -99 5z"/>
<path d="M150 966 l-55 -31 58 -3 c31 -2 57 -6 57 -10 0 -3 -18 -25 -41 -48
l-41 -42 63 15 c35 8 66 16 68 19 8 7 -23 4 -58 -6 l-35 -10 39 40 c42 43 40
47 -30 52 l-40 3 43 23 c23 12 42 25 42 27 0 9 -15 3 -70 -29z"/>
<path d="M2751 914 c-23 -30 -25 -42 -11 -64 7 -11 10 -7 10 17 0 59 46 80 94
42 33 -26 33 -53 0 -84 -15 -14 -22 -25 -15 -25 21 0 51 40 51 69 0 63 -90 94
-129 45z"/>
<path d="M2337 863 c-4 -3 -7 -13 -7 -20 0 -16 138 -213 149 -213 8 0 79 94
88 115 3 8 0 15 -7 15 -15 0 -147 63 -186 89 -17 12 -34 18 -37 14z"/>
<path d="M226 795 l-47 -55 78 1 c43 1 66 4 50 6 -15 2 -35 15 -44 29 -14 23
-14 26 2 44 10 11 16 22 13 25 -2 3 -26 -20 -52 -50z m28 -21 c9 -23 8 -24
-19 -24 -23 0 -24 2 -13 20 15 24 24 25 32 4z"/>
<path d="M508 822 c-60 -14 -108 -28 -108 -31 0 -3 10 -18 23 -33 l22 -27 72
47 c39 26 80 52 90 59 23 15 28 16 -99 -15z"/>
<path d="M2705 798 c-11 -6 -23 -16 -27 -22 -14 -21 -8 -66 12 -86 24 -24 82
-27 101 -4 12 14 14 14 26 -2 7 -10 13 -13 13 -7 0 7 -4 15 -10 18 -5 3 -10
17 -10 30 0 37 -10 55 -41 70 -33 18 -38 18 -64 3z m85 -40 c11 -21 12 -32 4
-45 -41 -65 -138 -18 -106 53 10 21 18 25 49 22 29 -2 41 -9 53 -30z"/>
<path d="M650 729 c-63 -39 -121 -76 -128 -83 -11 -11 -1 -26 55 -86 l69 -73
67 141 c37 78 67 146 67 151 0 24 -23 15 -130 -50z"/>
<path d="M135 730 c3 -5 14 -10 23 -10 15 0 15 2 2 10 -20 13 -33 13 -25 0z"/>
<path d="M338 700 c35 -14 48 -54 29 -84 -9 -13 -26 -27 -37 -31 -30 -9 -70
20 -70 50 0 14 -4 25 -10 25 -17 0 -11 -36 11 -64 27 -34 71 -35 104 -1 14 13
25 36 25 50 0 29 -32 65 -57 64 -14 0 -13 -2 5 -9z"/>
<path d="M2650 661 c19 -17 38 -31 43 -31 16 0 -9 24 -45 43 l-33 18 35 -30z"/>
<path d="M2696 623 c-4 -5 -34 -10 -67 -13 l-58 -5 55 -39 c30 -21 57 -36 60
-34 2 3 -15 18 -38 34 l-43 29 63 3 c42 2 62 7 60 14 -5 15 -22 21 -32 11z"/>
<path d="M2021 580 c-24 -16 -48 -31 -52 -32 -10 -3 20 -258 31 -271 13 -15
192 85 289 161 l23 19 -119 76 c-66 43 -122 77 -124 76 -2 0 -24 -14 -48 -29z"/>
<path d="M941 458 c-108 -97 -111 -101 -91 -115 53 -37 305 -141 316 -130 2 2
1 69 -3 149 l-6 145 -52 26 -51 25 -113 -100z"/>
<path d="M589 413 c-8 -10 -21 -27 -29 -38 -14 -19 -14 -19 6 -3 16 14 23 15
34 5 12 -10 12 -9 3 3 -7 10 -8 21 -3 30 7 12 11 12 27 -1 16 -13 17 -13 4 4
-7 9 -17 17 -21 17 -4 0 -13 -8 -21 -17z"/>
<path d="M1462 318 c-22 -62 -43 -121 -47 -130 -7 -17 2 -18 99 -18 108 0 259
17 254 29 -2 4 -32 57 -66 119 l-64 112 -68 0 -67 0 -41 -112z"/>
<path d="M2381 407 c-1 -38 15 -67 39 -67 11 0 20 4 20 9 0 5 -10 7 -22 3 -18
-4 -20 -2 -16 16 4 12 2 22 -2 22 -5 0 -11 10 -13 23 -4 18 -4 17 -6 -6z"/>
<path d="M638 373 c-18 -21 -31 -43 -25 -43 2 0 13 14 25 30 25 33 24 41 0 13z"/>
<path d="M2425 380 c3 -5 8 -10 11 -10 2 0 4 5 4 10 0 6 -5 10 -11 10 -5 0 -7
-4 -4 -10z"/>
<path d="M2330 343 c0 -41 11 -55 25 -32 4 6 13 8 21 5 20 -8 18 -3 -16 35
l-30 34 0 -42z m30 -14 c0 -5 -4 -9 -10 -9 -5 0 -10 7 -10 16 0 8 5 12 10 9 6
-3 10 -10 10 -16z"/>
<path d="M671 330 c-23 -31 -46 -39 -54 -17 -4 9 -6 9 -6 -1 -2 -28 31 -24 62
6 17 17 29 34 26 37 -3 2 -15 -9 -28 -25z"/>
<path d="M691 304 c-12 -20 -20 -38 -18 -40 2 -2 10 7 17 21 18 34 30 31 30
-8 0 -49 10 -52 38 -11 13 19 21 38 19 41 -3 3 -13 -10 -23 -29 l-18 -33 -8
44 c-4 24 -9 46 -11 48 -3 2 -14 -13 -26 -33z"/>
<path d="M2251 326 c-17 -20 -3 -46 25 -46 19 0 24 5 24 24 0 13 -7 27 -16 30
-21 8 -20 8 -33 -8z m37 -19 c2 -10 -3 -17 -12 -17 -18 0 -29 16 -21 31 9 14
29 6 33 -14z"/>
<path d="M772 250 c-22 -38 -22 -39 -3 -50 11 -5 23 -10 28 -10 4 1 -2 6 -14
13 l-22 12 20 32 c17 27 24 31 40 23 24 -13 25 -56 2 -69 -10 -6 -13 -11 -7
-11 36 -1 45 61 12 84 -30 21 -30 21 -56 -24z"/>
<path d="M2204 274 c9 -11 23 -28 32 -39 9 -11 7 -4 -5 15 -11 19 -25 36 -31
38 -7 3 -5 -4 4 -14z"/>
<path d="M2115 248 c-11 -6 -21 -12 -23 -14 -6 -4 38 -84 46 -84 5 0 17 7 28
16 18 14 18 15 -5 4 -19 -10 -25 -9 -32 1 -13 21 -11 27 12 34 11 4 18 9 16
12 -3 2 -14 0 -25 -6 -29 -16 -37 13 -9 33 26 18 21 20 -8 4z"/>
<path d="M874 199 c-49 -39 -54 -44 -27 -30 28 14 51 5 56 -22 3 -15 5 -12 6
10 1 25 -2 31 -14 27 -8 -4 -15 -1 -15 5 0 10 14 15 33 12 4 0 7 6 7 14 0 20
-1 20 -46 -16z"/>
<path d="M2018 199 c-17 -9 -17 -12 2 -49 23 -45 26 -46 58 -24 27 18 28 45 4
67 -21 19 -39 21 -64 6z m60 -11 c18 -18 14 -46 -9 -58 -24 -13 -22 -15 -43
27 -12 24 -13 33 -3 36 22 9 43 7 55 -5z"/>
<path d="M947 163 c-14 -35 -14 -39 1 -50 24 -19 49 -16 66 9 20 29 20 34 -4
58 -29 29 -46 25 -63 -17z m57 11 c19 -18 19 -20 6 -45 -11 -19 -36 -25 -57
-11 -8 5 -8 15 2 40 16 36 26 39 49 16z"/>
<path d="M1049 118 c-18 -24 -26 -37 -19 -30 22 19 50 14 60 -10 7 -19 9 -17
9 17 -1 22 -3 34 -6 28 -2 -7 -12 -13 -20 -13 -14 0 -14 3 2 20 10 11 16 23
13 26 -3 2 -20 -14 -39 -38z"/>
<path d="M1882 148 c-20 -20 -14 -56 13 -74 23 -15 27 -15 50 0 36 24 29 87
-9 86 -6 0 -3 -5 7 -11 43 -25 2 -93 -43 -69 -25 13 -26 55 -2 69 9 6 12 11 7
11 -6 0 -16 -5 -23 -12z"/>
<path d="M1170 101 c-14 -51 -13 -58 12 -64 29 -8 36 -1 8 8 -16 5 -20 12 -16
28 3 12 6 27 6 34 0 6 12 13 28 15 l27 3 -27 6 c-25 6 -29 3 -38 -30z"/>
<path d="M1841 129 c-1 -18 20 -82 25 -77 2 2 -3 24 -11 48 -7 25 -14 38 -14
29z"/>
<path d="M1782 120 c0 -8 4 -26 8 -40 6 -20 8 -21 8 -5 0 11 -3 29 -8 40 -5
12 -8 14 -8 5z"/>
<path d="M1242 100 c0 -14 2 -19 5 -12 2 6 2 18 0 25 -3 6 -5 1 -5 -13z"/>
<path d="M1750 110 c0 -7 3 -10 7 -7 3 4 3 10 0 14 -4 3 -7 0 -7 -7z"/>
<path d="M1343 103 c-18 -7 -16 -42 2 -49 13 -5 13 -9 3 -23 -12 -14 -11 -15
5 -2 29 23 40 50 26 67 -12 15 -16 16 -36 7z m32 -24 c0 -7 -8 -15 -17 -17
-18 -3 -25 18 -11 32 10 10 28 1 28 -15z"/>
<path d="M1675 68 c4 -38 1 -47 -13 -51 -16 -4 -16 -5 0 -6 25 -2 29 11 18 60
l-9 44 4 -47z"/>
<path d="M1702 90 c0 -14 2 -19 5 -12 2 6 2 18 0 25 -3 6 -5 1 -5 -13z"/>
<path d="M1440 50 c0 -46 2 -50 24 -50 29 0 56 24 56 50 0 26 -27 50 -56 50
-22 0 -24 -4 -24 -50z m64 18 c14 -23 -3 -52 -33 -56 -19 -3 -21 1 -21 38 0
37 2 41 21 38 12 -2 27 -11 33 -20z"/>
<path d="M1553 93 c9 -2 23 -2 30 0 6 3 -1 5 -18 5 -16 0 -22 -2 -12 -5z"/>
<path d="M1198 83 c7 -3 16 -2 19 1 4 3 -2 6 -13 5 -11 0 -14 -3 -6 -6z"/>
<path d="M1761 63 c-1 -25 -5 -33 -20 -33 -11 0 -22 7 -24 15 -4 11 -4 10 -3
-2 2 -23 44 -30 52 -9 3 8 4 25 1 38 -3 17 -5 15 -6 -9z"/>
<path d="M1234 45 c1 -12 9 -21 21 -22 14 -1 15 0 3 3 -9 3 -19 13 -21 22 -3
12 -4 11 -3 -3z"/>
<path d="M1540 34 c0 -31 3 -34 28 -33 23 2 24 2 5 6 -14 3 -23 12 -23 23 0
12 8 20 23 22 20 3 20 4 -5 9 -26 6 -28 4 -28 -27z"/>
<path d="M1808 43 c6 -2 18 -2 25 0 6 3 1 5 -13 5 -14 0 -19 -2 -12 -5z"/>
</g>
</svg>
